PathFileType	4	(X/Y/Z)	/Users/itak/Documents/Research/Walk-IL/dataset/trc/00083_00006.trc
DataRate	CameraRate	NumFrames	NumMarkers	Units	OrigDataRate	OrigDataStartFrame	OrigNumFrames
100.000000	100.000000	4	53	mm	100.000000	253	507
Frame#	Time	RPSI			LPSI			L3			STRN			T10			C7			CLAV			RBAK			LBAK			LSHO			LUPA			LAEL			LAOL			LWTS			LWPS			LFRA			LIFD			LHPS			LHTS			RSHO			RUPA			RAEL			RAOL			RWTS			RWPS			RFRA			RIFD			RHTS			RHPS			RBHD			LFHD			RFHD			LBHD			LHIP			RHIP			RASI			LASI			LKNE			LTHI			LANK			LTIP			LTOE			LMT1			LMT5			LHEE			RKNE			RTHI			RANK			RTIP			RTOE			RMT1			RMT5			RHEE			
		X1	Y1	Z1	X2	Y2	Z2	X3	Y3	Z3	X4	Y4	Z4	X5	Y5	Z5	X6	Y6	Z6	X7	Y7	Z7	X8	Y8	Z8	X9	Y9	Z9	X10	Y10	Z10	X11	Y11	Z11	X12	Y12	Z12	X13	Y13	Z13	X14	Y14	Z14	X15	Y15	Z15	X16	Y16	Z16	X17	Y17	Z17	X18	Y18	Z18	X19	Y19	Z19	X20	Y20	Z20	X21	Y21	Z21	X22	Y22	Z22	X23	Y23	Z23	X24	Y24	Z24	X25	Y25	Z25	X26	Y26	Z26	X27	Y27	Z27	X28	Y28	Z28	X29	Y29	Z29	X30	Y30	Z30	X31	Y31	Z31	X32	Y32	Z32	X33	Y33	Z33	X34	Y34	Z34	X35	Y35	Z35	X36	Y36	Z36	X37	Y37	Z37	X38	Y38	Z38	X39	Y39	Z39	X40	Y40	Z40	X41	Y41	Z41	X42	Y42	Z42	X43	Y43	Z43	X44	Y44	Z44	X45	Y45	Z45	X46	Y46	Z46	X47	Y47	Z47	X48	Y48	Z48	X49	Y49	Z49	X50	Y50	Z50	X51	Y51	Z51	X52	Y52	Z52	X53	Y53	Z53	

254	2.53	-600.9113159179688	1003.732666015625	446.1041259765625	-658.5758056640625	997.7346801757812	283.8235168457031	-634.397216796875	1069.354370117188	353.2190856933594	-381.7541198730469	1254.081909179688	300.2635498046875	-648.51171875	1198.112670898438	340.4043273925781	-579.1619262695312	1463.62255859375	337.3529052734375	-407.1915893554688	1369.231689453125	309.8600158691406	-635.34033203125	1324.0400390625	412.9945373535156	-619.9613037109375	1432.447143554688	238.7626342773438	-527.2086791992188	1437.789672851562	154.8568267822266	-545.9203491210938	1316.27294921875	72.47789764404297	-494.5435180664062	1108.85009765625	30.80597686767578	-551.3538818359375	1076.246459960938	114.2147903442383	-315.2664794921875	942.406494140625	125.0642013549805	-356.187255859375	899.0914916992188	65.01761627197266	-430.602783203125	1016.779296875	34.59246826171875	-220.92236328125	789.9144897460938	171.8629150390625	-290.4270935058594	845.351318359375	82.13193511962891	-256.3671569824219	881.741455078125	133.2587280273438	-493.4413757324219	1416.2919921875	498.7519836425781	-505.2577514648438	1348.79541015625	559.8187866210938	-576.3240966796875	1100.308715820312	603.1033935546875	-566.0062866210938	1070.901123046875	507.5118713378906	-472.6161804199219	829.8594970703125	563.9375	-541.6004638671875	824.8755493164062	619.356689453125	-574.47509765625	1018.164306640625	614.3863525390625	-497.8694152832031	642.2814331054688	551.0784301757812	-466.032470703125	725.4749145507812	564.1804809570312	-516.4074096679688	732.2716674804688	621.2439575195312	-546.3637084960938	1641.47998046875	329.6633911132812	-333.3533020019531	1661.61376953125	314.8595275878906	-411.4407348632812	1667.158569335938	216.4460144042969	-455.0120544433594	1627.501708984375	430.5192260742188	-590.49169921875	934.7728881835938	162.5123291015625	-507.5958557128906	937.0176391601562	498.9820861816406	-398.6500854492188	960.0646362304688	438.5366516113281	-468.85107421875	943.1437377929688	179.6218109130859	-541.2732543945312	471.6699523925781	264.7816772460938	-564.7415161132812	611.3065795898438	210.2413482666016	-750.88671875	53.35368728637695	314.4617004394531	-651.92236328125	245.6221466064453	281.1531677246094	-547.21435546875	42.81626129150391	342.3844299316406	-602.2855224609375	42.74114227294922	388.5339965820312	-646.4363403320312	40.61355972290039	285.2237854003906	-809.9150390625	64.69573974609375	385.1437377929688	-294.0740356445312	530.7542114257812	426.9567260742188	-377.0053405761719	785.4254760742188	474.9608764648438	-201.4808502197266	46.39044952392578	437.9058837890625	-264.7005310058594	411.9286499023438	433.6725158691406	-59.45764923095703	124.4457855224609	302.7941284179688	-123.8106460571289	99.12022399902344	296.8661193847656	-98.00668334960938	91.27307891845703	392.3404541015625	-268.0595703125	31.06221961975098	410.9221801757812	
255	2.54	-590.3779907226562	1002.617370605469	445.4931945800781	-648.86474609375	996.554931640625	283.5331420898438	-624.3628540039062	1068.054809570312	352.6261901855469	-372.2742309570312	1252.869018554688	298.6655883789062	-638.88671875	1196.704345703125	339.5923461914062	-569.8069458007812	1462.31591796875	336.3890380859375	-397.7689208984375	1367.9609375	308.4465942382812	-625.6953735351562	1322.558349609375	412.0100402832031	-610.74560546875	1431.1396484375	237.8475036621094	-518.1493530273438	1436.569458007812	153.7569732666016	-537.1263427734375	1315.190307617188	71.22733306884766	-486.0690612792969	1107.809936523438	28.93971061706543	-542.9171752929688	1075.0869140625	112.2982559204102	-306.7606506347656	941.5942993164062	123.5978698730469	-347.4813537597656	898.2738647460938	63.42465209960938	-422.0026245117188	1015.794006347656	32.83698654174805	-212.5386505126953	789.0806274414062	170.6107635498047	-281.8226013183594	844.5962524414062	80.65757751464844	-247.9134674072266	880.9102783203125	131.9455718994141	-483.7223815917969	1414.818359375	497.5829162597656	-495.4673461914062	1347.293212890625	558.5892944335938	-566.8597412109375	1098.933349609375	601.845947265625	-556.6392822265625	1069.5068359375	506.2423400878906	-463.9583740234375	828.1988525390625	562.582763671875	-532.9114379882812	823.5055541992188	618.1522216796875	-565.1591796875	1016.8388671875	613.1192626953125	-489.8467712402344	640.7341918945312	549.91552734375	-457.7890930175781	723.8131103515625	562.87646484375	-507.9412841796875	730.8159790039062	620.0444946289062	-537.1424560546875	1640.15380859375	328.9766235351562	-324.2286376953125	1660.569091796875	313.0576171875	-402.8185119628906	1666.100219726562	215.0636596679688	-445.2034301757812	1626.246459960938	429.3318786621094	-581.11962890625	933.6124877929688	162.0393218994141	-496.6855163574219	935.8443603515625	497.8038635253906	-388.16796875	958.78271484375	436.71875	-459.8136596679688	941.7899169921875	178.1644287109375	-535.3292236328125	470.4861145019531	264.0728149414062	-557.9131469726562	610.282470703125	209.4589996337891	-750.4509887695312	54.67364120483398	314.592529296875	-648.9137573242188	245.6566925048828	280.8070678710938	-547.1583251953125	42.80427169799805	342.2671203613281	-602.0685424804688	42.75135803222656	388.3876953125	-646.2755737304688	40.82114028930664	285.1997680664062	-809.5125122070312	67.19325256347656	385.2100219726562	-284.6521911621094	529.3604125976562	424.08837890625	-366.3384399414062	784.1500854492188	472.6650085449219	-190.1350402832031	45.65509033203125	432.5133361816406	-254.9120788574219	410.6301879882812	430.1484680175781	-49.21383285522461	124.1877899169922	296.592529296875	-113.5428466796875	98.76651000976562	291.0118713378906	-87.13784790039062	90.82669830322266	386.3153076171875	-256.9268798828125	30.28217697143555	405.936279296875	
256	2.55	-579.751953125	1001.633972167969	444.8172302246094	-638.9945068359375	995.5342407226562	283.1602172851562	-614.159912109375	1066.812622070312	351.9460754394531	-362.6637878417969	1251.784912109375	297.095947265625	-629.1366577148438	1195.370849609375	338.7734985351562	-560.3746337890625	1461.094116210938	335.4598999023438	-388.2495727539062	1366.814453125	307.061767578125	-615.9505004882812	1321.140869140625	411.0492248535156	-601.4447021484375	1429.9091796875	236.9765167236328	-509.0222778320312	1435.436279296875	152.6827545166016	-528.3331298828125	1314.168823242188	70.02560424804688	-477.7337646484375	1106.80224609375	27.15236663818359	-534.5884399414062	1074.025024414062	110.5014266967773	-298.5509033203125	940.5681762695312	122.0960998535156	-339.1558837890625	897.3242797851562	61.75240325927734	-413.6466674804688	1014.769470214844	31.1062068939209	-204.6729431152344	787.8264770507812	169.1525726318359	-273.6550903320312	843.6024780273438	79.04736328125	-239.8666687011719	879.7520141601562	130.5187530517578	-473.9176635742188	1413.436401367188	496.4592895507812	-485.5691528320312	1345.86181640625	557.3902587890625	-557.1766967773438	1097.579833984375	600.5809326171875	-547.0277709960938	1068.150756835938	504.9726867675781	-455.0569152832031	826.5772705078125	561.2474975585938	-523.9707641601562	822.1800537109375	616.9741821289062	-555.6062622070312	1015.554626464844	611.8363647460938	-481.5864868164062	639.2212524414062	548.8116455078125	-449.2008056640625	722.2054443359375	561.6231079101562	-499.210205078125	729.418212890625	618.883544921875	-527.865234375	1638.96142578125	328.3147583007812	-315.0449829101562	1659.649291992188	311.2509155273438	-394.1571044921875	1665.157592773438	213.6860198974609	-435.3290405273438	1625.120361328125	428.1546325683594	-571.60400390625	932.54736328125	161.5114898681641	-485.7378234863281	934.8126220703125	496.5979309082031	-377.6059265136719	957.6030883789062	434.9605712890625	-450.5423889160156	940.5249633789062	176.7606048583984	-529.025634765625	469.3542785644531	263.3478698730469	-550.813720703125	609.3245849609375	208.6920318603516	-749.9646606445312	56.2147216796875	314.6418762207031	-645.708740234375	245.8198699951172	280.3993225097656	-547.0810546875	42.78065490722656	342.1607055664062	-601.8296508789062	42.79922866821289	388.2077026367188	-646.0763549804688	41.04843521118164	285.1156311035156	-809.0069580078125	69.99790954589844	385.2156982421875	-275.0787963867188	528.1647338867188	420.9823303222656	-355.6213989257812	783.0409545898438	470.3116149902344	-181.3639831542969	44.70763397216797	427.9580078125	-245.4097747802734	409.2257995605469	426.5141296386719	-40.69088745117188	122.2902374267578	291.3704528808594	-105.0848236083984	97.11661529541016	285.9996032714844	-78.46597290039062	89.31975555419922	381.2554016113281	-248.3260345458984	29.65573501586914	401.621337890625	
257	2.56	-569.0458374023438	1000.804870605469	444.0537109375	-628.9736328125	994.6834106445312	282.6809692382812	-603.7864990234375	1065.647338867188	351.1576538085938	-352.915771484375	1250.8583984375	295.5641174316406	-619.2546997070312	1194.138061523438	337.9425048828125	-550.8595581054688	1459.9853515625	334.567138671875	-378.6258239746094	1365.823364257812	305.7113647460938	-606.0949096679688	1319.81640625	410.1171569824219	-592.0534057617188	1428.785278320312	236.1497802734375	-499.8212280273438	1434.415893554688	151.6380615234375	-519.5357055664062	1313.236572265625	68.87811279296875	-469.5552062988281	1105.853393554688	25.45078277587891	-526.3843994140625	1073.0908203125	108.8325424194336	-290.6563415527344	939.357666015625	120.5556182861328	-331.2203063964844	896.2747802734375	59.99960708618164	-405.5531005859375	1013.733642578125	29.40431022644043	-197.3282928466797	786.1927490234375	167.4784393310547	-265.9216613769531	842.4013671875	77.302978515625	-232.2187042236328	878.3055419921875	128.9791259765625	-464.0295715332031	1412.178833007812	495.3870544433594	-475.5590515136719	1344.534545898438	556.2285766601562	-547.2693481445312	1096.27734375	599.296630859375	-537.1724243164062	1066.8642578125	503.6842346191406	-445.912109375	825.0217895507812	559.9244995117188	-514.7493286132812	820.9290161132812	615.8278198242188	-545.802978515625	1014.340209960938	610.5315551757812	-473.086181640625	637.7693481445312	547.769775390625	-440.2850646972656	720.68408203125	560.4204711914062	-490.2112426757812	728.1054077148438	617.7644653320312	-518.524658203125	1637.927490234375	327.6682739257812	-305.8037719726562	1658.880004882812	309.4337158203125	-385.4551696777344	1664.348022460938	212.3066253662109	-425.3887634277344	1624.151977539062	426.9791564941406	-561.9513549804688	931.5838623046875	160.9029693603516	-474.707763671875	933.96337890625	495.3621215820312	-366.942138671875	956.5838623046875	433.2527160644531	-441.0343322753906	939.3795166015625	175.4024810791016	-522.2786254882812	468.2570495605469	262.5848388671875	-543.3660278320312	608.4307861328125	207.9243011474609	-749.4139404296875	58.00200271606445	314.5848693847656	-642.2705688476562	246.1275482177734	279.9065856933594	-546.9912719726562	42.74948883056641	342.0711364746094	-601.5728759765625	42.89306259155273	387.9952392578125	-645.8319702148438	41.28886413574219	284.961181640625	-808.356201171875	73.15818786621094	385.1383056640625	-265.4037475585938	527.1805419921875	417.6301574707031	-344.8643798828125	782.1074829101562	467.8837585449219	-174.8713684082031	43.63533020019531	424.2816772460938	-236.1706695556641	407.7672119140625	422.7751159667969	-33.73800277709961	118.7928466796875	286.9901428222656	-98.29254913330078	94.20970916748047	281.7742309570312	-71.75728607177734	86.82161712646484	377.0781555175781	-242.00341796875	29.25575065612793	398.0780029296875	
